o box.obj
mtllib box.mtl
g default
v -0.5 -0.5 0.5
v 0.5 -0.5 0.5
v 0.5 -0.5 -0.5
v -0.5 -0.5 -0.5
v -0.5 0.5 0.5
v 0.5 0.5 0.5
v 0.5 0.5 -0.5
v -0.5 0.5 -0.5
vn 0 -1 -0
vn 0 -1 -0
vn 0 -1 -0
vn 0 -1 -0
vn 0 -1 -0
vn 0 -1 -0
vn 0 0 1
vn 0 0 1
vn 0 0 1
vn 0 0 1
vn 0 0 1
vn 0 0 1
vn 1 0 -0
vn 1 0 -0
vn 1 0 -0
vn 1 -0 -0
vn 1 -0 -0
vn 1 -0 -0
vn 0 0 -1
vn 0 0 -1
vn 0 0 -1
vn 0 -0 -1
vn 0 -0 -1
vn 0 -0 -1
vn -1 0 -0
vn -1 0 -0
vn -1 0 -0
vn -1 0 -0
vn -1 0 -0
vn -1 0 -0
vn 0 1 -0
vn 0 1 -0
vn 0 1 -0
vn 0 1 0
vn 0 1 0
vn 0 1 0
g cyan
usemtl cyan
s off
f 4//1 2//2 1//3
f 4//4 3//5 2//6
g green
usemtl green
s off
f 5//7 1//8 2//9
f 6//10 5//11 2//12
g yellow
usemtl yellow
s off
f 3//13 6//14 2//15
f 7//16 6//17 3//18
g bule
usemtl bule
s off
f 8//19 3//20 4//21
f 8//22 7//23 3//24
g magenta
usemtl magenta
s off
f 5//25 4//26 1//27
f 5//28 8//29 4//30
g red
usemtl red
s off
f 8//31 5//32 6//33
f 7//34 8//35 6//36
